<svg width="510" height="545" viewBox="0 0 510 545" fill="none" xmlns="http://www.w3.org/2000/svg">
<g clip-path="url(#clip0_2108_337613)">
<mask id="mask0_2108_337613" style="mask-type:alpha" maskUnits="userSpaceOnUse" x="0" y="0" width="510" height="545">
<path d="M0 16.1035C0 7.26699 7.16344 0.103516 16 0.103516H494C502.837 0.103516 510 7.26696 510 16.1035V528.172C510 537.009 502.837 544.172 494 544.172H16C7.16344 544.172 0 537.009 0 528.172V16.1035Z" fill="url(#paint0_linear_2108_337613)"/>
</mask>
<g mask="url(#mask0_2108_337613)">
</g>
<path d="M110.674 346.168C109.209 346.168 107.804 345.586 106.769 344.55C105.733 343.514 105.151 342.109 105.151 340.644V252.234C105.151 250.769 105.733 249.365 106.769 248.329C107.804 247.293 109.209 246.711 110.674 246.711C112.139 246.711 113.544 247.293 114.58 248.329C115.616 249.365 116.198 250.769 116.198 252.234V340.644C116.198 342.109 115.616 343.514 114.58 344.55C113.544 345.586 112.139 346.168 110.674 346.168Z" fill="white"/>
<path d="M255 263.742C253.535 263.742 252.13 263.16 251.094 262.124C250.058 261.088 249.477 259.684 249.477 258.219V190.214C249.477 188.749 250.058 187.344 251.094 186.308C252.13 185.273 253.535 184.691 255 184.691C256.465 184.691 257.87 185.273 258.906 186.308C259.941 187.344 260.523 188.749 260.523 190.214V258.231C260.52 259.694 259.937 261.096 258.901 262.129C257.866 263.162 256.463 263.742 255 263.742Z" fill="white"/>
<path d="M255 406.667C253.535 406.667 252.13 406.085 251.094 405.049C250.058 404.013 249.477 402.608 249.477 401.143V341.66C249.477 340.195 250.058 338.791 251.094 337.755C252.13 336.719 253.535 336.137 255 336.137C256.465 336.137 257.87 336.719 258.906 337.755C259.941 338.791 260.523 340.195 260.523 341.66V401.143C260.523 402.608 259.941 404.013 258.906 405.049C257.87 406.085 256.465 406.667 255 406.667Z" fill="white"/>
<path d="M399.326 343.8C397.861 343.8 396.456 343.218 395.421 342.183C394.385 341.147 393.803 339.742 393.803 338.277V254.602C393.803 253.137 394.385 251.732 395.421 250.696C396.456 249.66 397.861 249.078 399.326 249.078C400.791 249.078 402.196 249.66 403.232 250.696C404.268 251.732 404.85 253.137 404.85 254.602V338.277C404.85 339.742 404.268 341.147 403.232 342.183C402.196 343.218 400.791 343.8 399.326 343.8Z" fill="white"/>
<path d="M357.783 219.858C356.748 219.858 355.734 219.566 354.858 219.015L290.757 178.88C290.142 178.495 289.609 177.993 289.189 177.402C288.768 176.811 288.467 176.143 288.305 175.436C287.976 174.009 288.228 172.509 289.006 171.267C289.783 170.025 291.022 169.143 292.449 168.815C293.877 168.486 295.377 168.738 296.618 169.515L360.735 209.653C361.751 210.29 362.532 211.24 362.961 212.361C363.389 213.481 363.442 214.71 363.11 215.863C362.778 217.015 362.08 218.028 361.121 218.749C360.163 219.47 358.995 219.859 357.796 219.858H357.783Z" fill="white"/>
<path d="M295.757 452.552C294.57 452.554 293.415 452.173 292.461 451.467C291.507 450.761 290.807 449.766 290.463 448.631C290.118 447.495 290.149 446.279 290.55 445.162C290.951 444.045 291.701 443.087 292.689 442.43L358.898 398.34C360.117 397.529 361.609 397.235 363.046 397.524C364.482 397.812 365.745 398.659 366.556 399.879C367.368 401.099 367.662 402.591 367.373 404.027C367.085 405.463 366.237 406.726 365.018 407.538L298.812 451.627C297.908 452.231 296.844 452.553 295.757 452.552Z" fill="white"/>
<path d="M150.5 220.934C149.3 220.935 148.133 220.546 147.174 219.825C146.216 219.105 145.518 218.091 145.186 216.939C144.854 215.786 144.906 214.557 145.335 213.437C145.763 212.317 146.545 211.366 147.561 210.73L216.648 167.47C217.263 167.085 217.948 166.825 218.663 166.705C219.379 166.585 220.111 166.607 220.818 166.769C221.525 166.932 222.192 167.232 222.783 167.653C223.374 168.074 223.876 168.607 224.261 169.222C224.646 169.837 224.906 170.521 225.026 171.237C225.147 171.952 225.125 172.684 224.962 173.391C224.799 174.098 224.499 174.766 224.078 175.357C223.657 175.948 223.124 176.45 222.51 176.835L153.422 220.091C152.547 220.641 151.534 220.933 150.5 220.934Z" fill="white"/>
<path d="M214.244 452.552C213.156 452.553 212.093 452.231 211.188 451.627L144.983 407.538C144.379 407.136 143.86 406.619 143.456 406.017C143.052 405.414 142.77 404.738 142.627 404.027C142.484 403.316 142.483 402.583 142.623 401.872C142.763 401.16 143.042 400.483 143.444 399.879C143.846 399.275 144.363 398.756 144.965 398.352C145.567 397.948 146.244 397.666 146.955 397.523C147.666 397.381 148.398 397.379 149.11 397.519C149.822 397.66 150.499 397.938 151.103 398.34L217.311 442.43C218.299 443.087 219.049 444.045 219.45 445.162C219.851 446.279 219.882 447.495 219.538 448.631C219.194 449.766 218.493 450.761 217.539 451.467C216.586 452.173 215.43 452.554 214.244 452.552Z" fill="white"/>
<path d="M293.696 285.151C292.504 285.153 291.344 284.769 290.388 284.058C289.433 283.346 288.733 282.345 288.393 281.203C288.053 280.06 288.092 278.839 288.503 277.721C288.915 276.602 289.677 275.647 290.675 274.997L353.946 233.815C355.174 233.015 356.669 232.736 358.103 233.039C359.536 233.342 360.791 234.203 361.59 235.431C362.39 236.659 362.668 238.154 362.365 239.588C362.062 241.021 361.202 242.276 359.974 243.075L296.704 284.258C295.809 284.841 294.764 285.151 293.696 285.151Z" fill="white"/>
<path d="M354.444 363.966C353.307 363.966 352.198 363.615 351.269 362.959L297.979 325.437C296.791 324.59 295.987 323.306 295.742 321.868C295.497 320.429 295.831 318.952 296.672 317.759C297.513 316.567 298.791 315.755 300.228 315.501C301.665 315.248 303.144 315.574 304.342 316.407L357.632 353.932C358.592 354.608 359.312 355.572 359.687 356.685C360.062 357.798 360.073 359.001 359.717 360.12C359.362 361.239 358.659 362.216 357.711 362.909C356.763 363.601 355.619 363.974 354.444 363.972V363.966Z" fill="white"/>
<path d="M218.072 286.3C217.004 286.3 215.959 285.989 215.064 285.406L143.231 238.662C142.623 238.267 142.099 237.755 141.688 237.156C141.278 236.558 140.99 235.885 140.84 235.175C140.69 234.465 140.681 233.733 140.814 233.019C140.947 232.306 141.219 231.626 141.615 231.018C142.011 230.41 142.522 229.886 143.121 229.476C143.719 229.065 144.393 228.777 145.102 228.627C145.812 228.477 146.545 228.468 147.258 228.601C147.971 228.734 148.651 229.006 149.259 229.402L221.092 276.146C222.091 276.796 222.853 277.751 223.265 278.869C223.676 279.988 223.715 281.209 223.375 282.351C223.035 283.493 222.335 284.495 221.38 285.207C220.424 285.918 219.263 286.302 218.072 286.3Z" fill="white"/>
<path d="M152.081 366.418C150.907 366.42 149.763 366.047 148.815 365.355C147.866 364.662 147.164 363.685 146.808 362.566C146.453 361.447 146.464 360.244 146.838 359.131C147.213 358.018 147.933 357.054 148.893 356.378L211.071 312.598C212.269 311.753 213.753 311.419 215.197 311.668C216.641 311.918 217.927 312.73 218.771 313.928C219.616 315.125 219.95 316.609 219.701 318.053C219.451 319.497 218.638 320.783 217.441 321.628L155.263 365.408C154.332 366.066 153.221 366.419 152.081 366.418Z" fill="white"/>
<path d="M255 346.12L208.84 320.924V274.764L255 299.96V346.12Z" fill="#FF1DFF"/>
<path d="M255 346.12L301.16 320.924V274.764L255 299.96V346.12Z" fill="#441C6C"/>
<path d="M208.84 274.764L255 248.327L301.16 274.764L255 299.96L208.84 274.764Z" fill="#FEF87D"/>
<path d="M110.677 261.571L64.5171 236.374V190.214L110.677 215.41V261.571Z" fill="#FF1DFF"/>
<path d="M110.677 261.571L156.837 236.374V190.214L110.677 215.41V261.571Z" fill="#441C6C"/>
<path d="M64.5171 190.214L110.677 163.777L156.837 190.214L110.677 215.41L64.5171 190.214Z" fill="#FEF87D"/>
<path d="M110.677 429.101L64.5171 403.905V357.745L110.677 382.941V429.101Z" fill="#FF1DFF"/>
<path d="M110.677 429.101L156.837 403.905V357.745L110.677 382.941V429.101Z" fill="#441C6C"/>
<path d="M64.5171 357.745L110.677 331.308L156.837 357.745L110.677 382.941L64.5171 357.745Z" fill="#FEF87D"/>
<path d="M399.323 261.571L353.163 236.374V190.214L399.323 215.41V261.571Z" fill="#FF1DFF"/>
<path d="M399.323 261.571L445.483 236.374V190.214L399.323 215.41V261.571Z" fill="#441C6C"/>
<path d="M353.163 190.214L399.323 163.777L445.483 190.214L399.323 215.41L353.163 190.214Z" fill="#FEF87D"/>
<path d="M399.323 429.101L353.163 403.905V357.745L399.323 382.941V429.101Z" fill="#FF1DFF"/>
<path d="M399.323 429.101L445.483 403.905V357.745L399.323 382.941V429.101Z" fill="#441C6C"/>
<path d="M353.163 357.745L399.323 331.308L445.483 357.745L399.323 382.941L353.163 357.745Z" fill="#FEF87D"/>
<path d="M255 200.103L208.84 174.903V128.743L255 153.942V200.103Z" fill="#FF1DFF"/>
<path d="M255 200.103L301.16 174.903V128.743L255 153.942V200.103Z" fill="#441C6C"/>
<path d="M208.84 128.743L255 102.306L301.16 128.743L255 153.942L208.84 128.743Z" fill="#FEF87D"/>
<path d="M255 494.477L208.84 469.277V423.117L255 448.316V494.477Z" fill="#FF1DFF"/>
<path d="M255 494.477L301.16 469.277V423.117L255 448.316V494.477Z" fill="#441C6C"/>
<path d="M208.84 423.117L255 396.68L301.16 423.117L255 448.316L208.84 423.117Z" fill="#FEF87D"/>
<path d="M422.986 210.321C421.336 210.831 419.815 211.908 418.568 213.331C416.582 215.644 415.281 218.877 415.281 222.066L415.267 242.598C415.267 242.936 415.493 243.087 415.767 242.943L416.911 242.347C417.192 242.203 417.411 241.815 417.418 241.484V241.046C417.418 240.716 417.644 240.335 417.925 240.191L419.267 239.502C419.548 239.358 419.767 239.502 419.767 239.832V240.263C419.767 240.587 419.993 240.73 420.267 240.587L421.493 239.94C421.774 239.796 421.993 239.416 422 239.099V238.676C422 238.359 422.226 237.986 422.507 237.842L423.767 237.196C424.048 237.052 424.267 237.196 424.267 237.505V237.921C424.267 238.237 424.493 238.367 424.767 238.223L425.993 237.576C426.274 237.433 426.493 237.066 426.493 236.757V236.348C426.493 236.039 426.719 235.673 427 235.536L428.26 234.89C428.541 234.746 428.76 234.875 428.76 235.177V235.579C428.76 235.881 428.986 236.01 429.26 235.859L430.486 235.213C430.767 235.069 430.986 234.71 430.986 234.416V216.535C430.986 211.844 427.384 208.949 422.979 210.314L422.986 210.321Z" fill="#FF1DFF"/>
<path d="M278.986 149.321C277.336 149.831 275.815 150.908 274.568 152.331C272.582 154.644 271.281 157.877 271.281 161.066L271.267 181.598C271.267 181.936 271.493 182.087 271.767 181.943L272.911 181.347C273.192 181.203 273.411 180.815 273.418 180.484V180.046C273.418 179.716 273.644 179.335 273.925 179.191L275.267 178.502C275.548 178.358 275.767 178.502 275.767 178.832V179.263C275.767 179.587 275.993 179.73 276.267 179.587L277.493 178.94C277.774 178.796 277.993 178.416 278 178.099V177.676C278 177.359 278.226 176.986 278.507 176.842L279.767 176.196C280.048 176.052 280.267 176.196 280.267 176.505V176.921C280.267 177.237 280.493 177.367 280.767 177.223L281.993 176.576C282.274 176.433 282.493 176.066 282.493 175.757V175.348C282.493 175.039 282.719 174.673 283 174.536L284.26 173.89C284.541 173.746 284.76 173.875 284.76 174.177V174.579C284.76 174.881 284.986 175.01 285.26 174.859L286.486 174.213C286.767 174.069 286.986 173.71 286.986 173.416V155.535C286.986 150.844 283.384 147.949 278.979 149.314L278.986 149.321Z" fill="#FF1DFF"/>
<path d="M422.986 378.321C421.336 378.831 419.815 379.908 418.568 381.331C416.582 383.644 415.281 386.877 415.281 390.066L415.267 410.598C415.267 410.936 415.493 411.087 415.767 410.943L416.911 410.347C417.192 410.203 417.411 409.815 417.418 409.484V409.046C417.418 408.716 417.644 408.335 417.925 408.191L419.267 407.502C419.548 407.358 419.767 407.502 419.767 407.832V408.263C419.767 408.587 419.993 408.73 420.267 408.587L421.493 407.94C421.774 407.796 421.993 407.416 422 407.099V406.676C422 406.359 422.226 405.986 422.507 405.842L423.767 405.196C424.048 405.052 424.267 405.196 424.267 405.505V405.921C424.267 406.237 424.493 406.367 424.767 406.223L425.993 405.576C426.274 405.433 426.493 405.066 426.493 404.757V404.348C426.493 404.039 426.719 403.673 427 403.536L428.26 402.89C428.541 402.746 428.76 402.875 428.76 403.177V403.579C428.76 403.881 428.986 404.01 429.26 403.859L430.486 403.213C430.767 403.069 430.986 402.71 430.986 402.416V384.535C430.986 379.844 427.384 376.949 422.979 378.314L422.986 378.321Z" fill="#FF1DFF"/>
<path d="M278.986 444.321C277.336 444.831 275.815 445.908 274.568 447.331C272.582 449.644 271.281 452.877 271.281 456.066L271.267 476.598C271.267 476.936 271.493 477.087 271.767 476.943L272.911 476.347C273.192 476.203 273.411 475.815 273.418 475.484V475.046C273.418 474.716 273.644 474.335 273.925 474.191L275.267 473.502C275.548 473.358 275.767 473.502 275.767 473.832V474.263C275.767 474.587 275.993 474.73 276.267 474.587L277.493 473.94C277.774 473.796 277.993 473.416 278 473.099V472.676C278 472.359 278.226 471.986 278.507 471.842L279.767 471.196C280.048 471.052 280.267 471.196 280.267 471.505V471.921C280.267 472.237 280.493 472.367 280.767 472.223L281.993 471.576C282.274 471.433 282.493 471.066 282.493 470.757V470.348C282.493 470.039 282.719 469.673 283 469.536L284.26 468.89C284.541 468.746 284.76 468.875 284.76 469.177V469.579C284.76 469.881 284.986 470.01 285.26 469.859L286.486 469.213C286.767 469.069 286.986 468.71 286.986 468.416V450.535C286.986 445.844 283.384 442.949 278.979 444.314L278.986 444.321Z" fill="#FF1DFF"/>
<path d="M279.986 295.321C278.336 295.831 276.815 296.908 275.568 298.331C273.582 300.644 272.281 303.877 272.281 307.066L272.267 327.598C272.267 327.936 272.493 328.087 272.767 327.943L273.911 327.347C274.192 327.203 274.411 326.815 274.418 326.484V326.046C274.418 325.716 274.644 325.335 274.925 325.191L276.267 324.502C276.548 324.358 276.767 324.502 276.767 324.832V325.263C276.767 325.587 276.993 325.73 277.267 325.587L278.493 324.94C278.774 324.796 278.993 324.416 279 324.099V323.676C279 323.359 279.226 322.986 279.507 322.842L280.767 322.196C281.048 322.052 281.267 322.196 281.267 322.505V322.921C281.267 323.237 281.493 323.367 281.767 323.223L282.993 322.576C283.274 322.433 283.493 322.066 283.493 321.757V321.348C283.493 321.039 283.719 320.673 284 320.536L285.26 319.89C285.541 319.746 285.76 319.875 285.76 320.177V320.579C285.76 320.881 285.986 321.01 286.26 320.859L287.486 320.213C287.767 320.069 287.986 319.71 287.986 319.416V301.535C287.986 296.844 284.384 293.949 279.979 295.314L279.986 295.321Z" fill="#FEF87D"/>
<path d="M134.986 209.321C133.336 209.831 131.815 210.908 130.568 212.331C128.582 214.644 127.281 217.877 127.281 221.066L127.267 241.598C127.267 241.936 127.493 242.087 127.767 241.943L128.911 241.347C129.192 241.203 129.411 240.815 129.418 240.484V240.046C129.418 239.716 129.644 239.335 129.925 239.191L131.267 238.502C131.548 238.358 131.767 238.502 131.767 238.832V239.263C131.767 239.587 131.993 239.73 132.267 239.587L133.493 238.94C133.774 238.796 133.993 238.416 134 238.099V237.676C134 237.359 134.226 236.986 134.507 236.842L135.767 236.196C136.048 236.052 136.267 236.196 136.267 236.505V236.921C136.267 237.237 136.493 237.367 136.767 237.223L137.993 236.576C138.274 236.433 138.493 236.066 138.493 235.757V235.348C138.493 235.039 138.719 234.673 139 234.536L140.26 233.89C140.541 233.746 140.76 233.875 140.76 234.177V234.579C140.76 234.881 140.986 235.01 141.26 234.859L142.486 234.213C142.767 234.069 142.986 233.71 142.986 233.416V215.535C142.986 210.844 139.384 207.949 134.979 209.314L134.986 209.321Z" fill="#FEF87D"/>
<path d="M134.986 379.321C133.336 379.831 131.815 380.908 130.568 382.331C128.582 384.644 127.281 387.877 127.281 391.066L127.267 411.598C127.267 411.936 127.493 412.087 127.767 411.943L128.911 411.347C129.192 411.203 129.411 410.815 129.418 410.484V410.046C129.418 409.716 129.644 409.335 129.925 409.191L131.267 408.502C131.548 408.358 131.767 408.502 131.767 408.832V409.263C131.767 409.587 131.993 409.73 132.267 409.587L133.493 408.94C133.774 408.796 133.993 408.416 134 408.099V407.676C134 407.359 134.226 406.986 134.507 406.842L135.767 406.196C136.048 406.052 136.267 406.196 136.267 406.505V406.921C136.267 407.237 136.493 407.367 136.767 407.223L137.993 406.576C138.274 406.433 138.493 406.066 138.493 405.757V405.348C138.493 405.039 138.719 404.673 139 404.536L140.26 403.89C140.541 403.746 140.76 403.875 140.76 404.177V404.579C140.76 404.881 140.986 405.01 141.26 404.859L142.486 404.213C142.767 404.069 142.986 403.71 142.986 403.416V385.535C142.986 380.844 139.384 377.949 134.979 379.314L134.986 379.321Z" fill="#51B4BA"/>
</g>
<defs>
<linearGradient id="paint0_linear_2108_337613" x1="255" y1="0.103516" x2="255" y2="544.172" gradientUnits="userSpaceOnUse">
<stop stop-color="#FF1DFF"/>
<stop offset="1" stop-color="#FEF87D"/>
</linearGradient>
<clipPath id="clip0_2108_337613">
<rect width="510" height="544.069" fill="white" transform="translate(0 0.103516)"/>
</clipPath>
</defs>
</svg>
